<?xml version="1.0" encoding="UTF-8"?><svg id="Ebene_2" xmlns="http://www.w3.org/2000/svg" viewBox="0 0 109.79 109.79"><defs><style>.cls-1{fill:#fff;}.cls-2{fill:#ababab;}.cls-3{fill:#294395;}.cls-4{fill:#517cbe;}</style></defs><g id="Ebene_1-2"><g><circle class="cls-1" cx="54.89" cy="54.89" r="54.89" pointer-events="none"/><g><path class="cls-3" d="M90.41,55.89c0-.49-.01-.98-.04-1.47V26.65l-7.68,7.68c-6.28-7.69-15.84-12.6-26.54-12.6s-21.04,5.32-27.29,13.55l12.58,12.71c1.23-2.28,2.98-4.24,5.1-5.72,2.2-1.71,5.31-3.12,9.61-3.12,.52,0,.92,.06,1.22,.18,5.33,.42,9.96,3.36,12.68,7.64l-8.91,8.91c11.28-.04,24.02-.07,29.26,0"/><path class="cls-4" d="M55.96,21.73c-.49,0-.98,.01-1.47,.04H26.72l7.68,7.68c-7.69,6.28-12.6,15.84-12.6,26.54s5.32,21.04,13.55,27.29l12.71-12.58c-2.28-1.23-4.24-2.98-5.72-5.1-1.71-2.2-3.12-5.31-3.12-9.61,0-.52,.06-.92,.18-1.22,.42-5.33,3.36-9.96,7.64-12.68l8.91,8.91c-.04-11.28-.07-24.02,0-29.26"/><path class="cls-2" d="M21.8,55.98c0,.49,.01,.98,.04,1.47v27.77l7.68-7.68c6.28,7.69,15.84,12.6,26.54,12.6s21.04-5.32,27.29-13.55l-12.58-12.71c-1.23,2.28-2.98,4.24-5.1,5.72-2.2,1.71-5.31,3.12-9.61,3.12-.52,0-.92-.06-1.22-.18-5.33-.42-9.96-3.36-12.68-7.64l8.91-8.91c-11.28,.04-24.02,.07-29.26,0"/></g></g></g></svg>